<?xml version="1.0" standalone="no"?>
<!DOCTYPE svg PUBLIC "-//W3C//DTD SVG 20010904//EN"
 "http://www.w3.org/TR/2001/REC-SVG-20010904/DTD/svg10.dtd">
<svg version="1.0" xmlns="http://www.w3.org/2000/svg"
 width="300.000000pt" height="300.000000pt" viewBox="0 0 300.000000 300.000000"
 preserveAspectRatio="xMidYMid meet">
<metadata>
Created by potrace 1.11, written by Peter Selinger 2001-2013
</metadata>
<g transform="translate(0.000000,300.000000) scale(0.100000,-0.100000)"
fill="#000000" stroke="none">
<path d="M1454 2877 c-96 -122 -231 -318 -271 -393 -56 -106 -83 -211 -83
-329 0 -120 25 -218 96 -368 73 -156 124 -292 169 -457 44 -157 57 -186 87
-196 31 -9 160 -6 170 4 5 5 19 56 33 113 32 143 63 238 161 495 86 225 114
324 114 404 0 113 -50 250 -149 410 -66 107 -263 370 -276 369 -5 0 -28 -23
-51 -52z"/>
<path d="M570 1942 c-116 -39 -188 -91 -237 -173 -131 -219 -47 -540 160 -618
61 -22 190 -30 202 -11 3 5 -5 25 -19 43 -79 104 -73 205 17 271 65 48 214 9
319 -84 55 -48 113 -133 135 -195 l15 -45 83 0 c46 0 86 4 89 9 8 12 -37 191
-74 296 -88 248 -207 408 -358 483 -70 34 -83 37 -176 39 -77 2 -114 -1 -156
-15z"/>
<path d="M2200 1946 c-146 -41 -294 -188 -379 -378 -55 -121 -138 -408 -125
-429 3 -5 43 -9 89 -9 l83 0 15 45 c53 155 229 298 368 299 46 1 62 -4 92 -27
80 -61 88 -145 23 -242 -20 -31 -34 -60 -31 -65 4 -6 41 -10 84 -10 67 0 86 4
139 31 135 67 213 229 199 412 -18 236 -191 389 -437 386 -41 0 -95 -6 -120
-13z"/>
<path d="M1122 1071 c-9 -5 -12 -27 -10 -72 l3 -64 389 -3 c279 -1 393 1 402
9 17 14 19 110 2 127 -14 14 -764 17 -786 3z"/>
<path d="M1484 883 c-33 -3 -57 -10 -66 -21 -8 -9 -27 -55 -41 -102 -47 -152
-102 -235 -199 -302 -58 -39 -60 -42 -55 -75 11 -68 81 -129 170 -148 21 -4
33 -16 47 -50 33 -78 117 -155 169 -155 32 0 119 76 145 128 31 61 49 76 116
95 61 18 115 62 136 114 20 47 19 50 -38 79 -108 55 -183 163 -232 334 -26 86
-44 111 -80 108 -12 -1 -44 -3 -72 -5z"/>
<path d="M1676 860 c31 -139 106 -260 187 -302 61 -31 161 -23 219 18 105 72
104 200 -1 271 -49 33 -135 32 -185 -2 l-37 -25 -9 24 c-13 36 -38 45 -113 43
-65 -2 -66 -2 -61 -27z"/>
<path d="M1178 853 c-7 -16 -13 -30 -15 -32 -2 -3 -15 6 -29 20 -22 21 -35 24
-98 24 -65 0 -77 -3 -110 -29 -71 -53 -85 -133 -37 -208 37 -58 96 -88 175
-88 95 0 174 57 230 167 29 58 58 152 50 164 -3 5 -39 9 -80 9 -72 0 -75 -1
-86 -27z"/>
</g>
</svg>
