<svg id="Layer_1" data-name="Layer 1" xmlns="http://www.w3.org/2000/svg" viewBox="0 0 1065.2 366.66"><defs><style>.cls-1{fill:#2d2d2d;}.cls-2{fill:#fff;}</style></defs><title>header</title><path class="cls-1" d="M712.29,148.41c12.85-3,27.23-.11,37.34,8.56q2.77-3,5.58-6H758c0,9.45,0,18.9,0,28.36l-3.89-.09c-1.61-7.79-5.39-15.33-11.59-20.46A33.46,33.46,0,0,0,722,151.23c-10.33-.56-20.54,6.1-24.46,15.62-4.35,10.69-5,22.4-5.56,33.79-0.09,11.93-.48,24,2,35.75,1.53,6.3,4.11,12.75,9.28,16.95,6,5.16,14.44,6.12,22.08,5.47,6.23-.49,12.87-3.26,15.88-9,3.89-7.46,3.57-16.23,3.37-24.41-5.35-.23-10.72-0.15-16.07,0,0-1.41,0-2.82,0-4.23q22.57,0,45.15,0c0,1.39,0,2.78,0,4.18q-5.09-.1-10.15,0c-0.81,9.69-3.29,20-10.47,27-7.64,7.77-18.94,10.24-29.47,10.67-11.53.68-23.49-2.73-32.18-10.52C680,242.28,674.45,227,673.2,212c-1.64-14.7,1.76-30.08,10.24-42.28C690.28,159.66,700.43,151.56,712.29,148.41Z" transform="translate(-11.29 -11.26)"/><path class="cls-1" d="M611.63,153.24c0.68-1.64.82-3.72,2.19-5,2-.19,4.06-0.09,6.09-0.09q17.17,54,34.08,108.17c3.91,0.07,7.82.06,11.73,0,0,1.33,0,2.68.05,4-14,0-27.95.07-41.92,0,0-1.34.06-2.68,0.12-4,4.35,0,8.71,0,13.06,0-3.68-12.09-7.52-24.13-11.34-36.17q-15.7,0-31.38,0c-3.9,12-7.71,24.13-11.7,36.16,4.7,0.09,9.39,0,14.09.1,0,1.31,0,2.63,0,4-10.79,0-21.58,0-32.36,0,0-1.32,0-2.65,0-4,4.35-.1,8.7-0.05,13.05-0.08C588.85,222,600.35,187.66,611.63,153.24ZM595.85,215.5c9.43,0,18.87,0,28.3,0-4.66-14.91-9.14-29.87-13.61-44.83C605.36,185.52,600.79,200.57,595.85,215.5Z" transform="translate(-11.29 -11.26)"/><path class="cls-1" d="M821.88,148.28c2.21-.07,4.41-0.08,6.64-0.07q17.08,54.09,34.08,108.2h11.73c0,1.31-.05,2.62-0.06,3.95q-20.91.2-41.82,0c0-1.3,0-2.6-.05-3.89,4.44-.06,8.88-0.06,13.33-0.06-3.89-12-7.57-24.14-11.44-36.18-10.46-.06-20.9,0-31.36,0-4,12-7.81,24.12-11.67,36.21,4.65,0,9.31,0,14,0,0,1.3.07,2.61,0.11,3.92-10.8.2-21.61,0.07-32.41,0.08,0-1.35,0-2.69.06-4,4.34,0.05,8.67,0,13,0Q804,202.37,821.88,148.28ZM819,170.74q-7.38,22.34-14.54,44.75,14.07,0.05,28.15,0C828,200.58,823.73,185.58,819,170.74Z" transform="translate(-11.29 -11.26)"/><path class="cls-1" d="M346.75,149.68c11.18,0,22.37,0,33.56,0,10.06-.06,20.43-0.42,30,3.11A45.57,45.57,0,0,1,436,174.71c6.54,12.29,7.76,26.79,5.87,40.4A61.66,61.66,0,0,1,433,238.8c-4.17,6.45-9.26,12.66-16.28,16.12-9.29,5-20.09,5.79-30.44,5.53-13.13,0-26.27,0-39.4,0-0.09-1.34-.18-2.68-0.26-4,4.19,0,8.38,0,12.58,0,0.07-34.24,0-68.48,0-102.73-4.2-.11-8.4-0.08-12.6,0C346.64,152.36,346.69,151,346.75,149.68Zm28.89,4.06q0,51.33,0,102.66c10.57-.46,21.85,1.7,31.72-3.13,7.63-3.69,12.84-11.35,14.71-19.48,2.27-10.33,2-21,2.39-31.48-0.3-10.5-.07-21.45-4.39-31.26a26,26,0,0,0-13.45-13.84C396.95,152.64,386,153.91,375.63,153.74Z" transform="translate(-11.29 -11.26)"/><path class="cls-1" d="M457,149.69h37.46c11.2,0.06,22.93-.66,33.45,3.89,7.12,3,13.24,9.31,14.29,17.16,1.18,8.18-1.36,17.42-8.17,22.56-7.46,5.61-17,7-26.07,7.93,9.13,2.63,19.18,5.6,25.05,13.68,6.21,8.48,5.65,19.55,5.27,29.51,0.15,4.35.49,10,4.85,12.28,4.62,1.87,9.64.16,14.16-1.21,0,1.45,0,2.91,0,4.36-7.3,2.4-15.3,4.36-22.88,2.06a18.41,18.41,0,0,1-11.17-9.13c-1.82-3.44-2.05-7.39-2.47-11.17-0.84-7.67-1.35-15.37-2.46-23-0.79-5.24-3.61-10.46-8.48-12.92-7.29-4.06-15.9-2.75-23.88-2.95V256.4c4.31,0,8.62,0,12.94,0,0,1.34,0,2.68.06,4q-21,.06-41.94,0c0-1.33,0-2.66,0-4q6.37-.06,12.75,0,0.06-51.34,0-102.69c-4.26-.14-8.51-0.13-12.77-0.12Q457,151.65,457,149.69Zm28.94,4c0,15,0,30,0,45,7.84,0.24,15.76.44,23.51-1,4.13-.82,8.33-2.71,10.78-6.29,3.69-5.25,4.17-11.94,4-18.15-0.09-4.81-.91-9.93-4.12-13.7-3.56-4.23-9.36-5.42-14.61-5.73C499,153.59,492.5,153.81,486,153.74Z" transform="translate(-11.29 -11.26)"/><path class="cls-1" d="M874.35,149.69h41.94c0,1.33,0,2.67,0,4-4.32-.06-8.64-0.11-13,0q0,36.24,0,72.48c0.07,5.74-.61,11.74,1.71,17.18a20.71,20.71,0,0,0,15.72,13.44c9.39,1.54,20.54,0,26.89-7.81,5.17-7,6.21-16.06,6.39-24.52,0.43-23.6.09-47.21,0.19-70.8-4.28,0-8.54,0-12.8.09q0-2,.15-4h29.89c0,1.32,0,2.65.06,4-4.21-.09-8.41,0-12.61.08-0.07,23,0,46,0,69-0.12,8.68-.73,17.8-5.1,25.53-3.61,6.68-10.35,11.3-17.66,13a55.2,55.2,0,0,1-26.13.12c-7.46-1.83-14.62-6.16-18.6-12.88a28.5,28.5,0,0,1-4.21-14.72c0-26.73.05-53.46,0-80.18-4.23-.09-8.45-0.05-12.67,0C874.38,152.38,874.36,151,874.35,149.69Z" transform="translate(-11.29 -11.26)"/><path class="cls-1" d="M979.76,149.69c13.5,0,27,0,40.49,0,8.49-.09,17.17.58,25.13,3.77a46,46,0,0,1,26.52,27c8,21.61,4.52,47.7-10.75,65.32-8.42,10.75-22.65,14.69-35.8,14.68-15.2,0-30.4,0-45.61,0,0-1.3,0-2.61.07-3.89,4.24-.18,8.5-0.09,12.76-0.15-0.05-34.24,0-68.48,0-102.72-4.27-.05-8.53,0-12.79.07C979.73,152.38,979.74,151,979.76,149.69Zm29,4q0,51.33,0,102.66l17.45,0c7.12-.11,14.58-2,20-6.9a31.09,31.09,0,0,0,9.71-18.44c1.92-12,1.7-24.28,1.64-36.43-0.28-9-1.21-18.43-5.64-26.48a26.73,26.73,0,0,0-15.73-12.41C1027.31,152.85,1017.9,153.95,1008.75,153.74Z" transform="translate(-11.29 -11.26)"/><path class="cls-1" d="M339.45,288.83q368.5-.09,737,0c0,1.53,0,3.08,0,4.63q-331.9-.15-663.81,0c-24.43,0-48.87-.1-73.3.08C339.39,291.91,339.42,290.37,339.45,288.83Z" transform="translate(-11.29 -11.26)"/><path class="cls-1" d="M679.64,312.52l3.12-.14c0,2.51,0,5,0,7.55l-3.18-.05C679.6,317.42,679.61,315,679.64,312.52Z" transform="translate(-11.29 -11.26)"/><path class="cls-1" d="M457.42,315.4c1-.06,2-0.11,2.93-0.14,0.07,3.81.05,7.63,0.05,11.45l6.82,0.06v2.47c-2.27,0-4.52.05-6.78,0.09q-0.08,13.22,0,26.43c0.17,2,.07,4.38,1.56,5.95,1.73,0.95,3.8.74,5.72,1-0.07.57-.2,1.7-0.26,2.28-3-.07-7.1.84-9-2.2-1-2.51-.83-5.31-1-8,0-8.5,0-17,0-25.51-1.71,0-3.43-.05-5.13-0.07l0-2.46c1.68,0,3.37-.07,5.06-0.09C457.42,322.93,457.41,319.16,457.42,315.4Z" transform="translate(-11.29 -11.26)"/><path class="cls-1" d="M346,329.94c4-5.6,13.63-5.95,17.76-.32,1.82,2.35,2.36,5.33,2.88,8.19-1,0-2.09,0-3.13,0-0.68-2.76-1.21-5.87-3.5-7.81a8,8,0,0,0-11.54,1.56c-2.8,4-2.92,9.17-3.05,13.89,0.12,5,.08,10.49,3.09,14.76,2.69,3.87,9.08,4,12.08.48,2.16-2.27,2.66-5.47,3.2-8.41l3.06,0.18c-0.57,4.06-1.79,8.4-5.2,11-2.95,2.56-7.17,2.74-10.8,1.87-3.66-1.12-6.13-4.56-7.13-8.11a44.52,44.52,0,0,1-1.26-16C342.8,337.28,343.63,333.2,346,329.94Z" transform="translate(-11.29 -11.26)"/><path class="cls-1" d="M424,327a12.93,12.93,0,0,1,12.52.55c3,2.36,3.27,6.46,3.57,10l-2.85,0c-0.43-2.91-.56-6.48-3.27-8.28-3.53-2.13-9.23-1.25-11,2.82-1.07,2.71-.91,6.34,1.48,8.33,4.36,3.66,10.92,3.76,14.61,8.36,3.8,5.31,1.73,14.38-4.86,16.39-4,.93-8.94,1.07-12.3-1.75-3.11-2.72-3.17-7.17-3.64-10.95l3.1,0c0.33,2.68.26,5.65,1.89,8,3.14,4.17,10.4,3.88,13.29-.43,1.86-3.12,1.83-7.69-1-10.24-4.24-3.83-10.84-3.89-14.6-8.35C418.14,336.92,419,329.63,424,327Z" transform="translate(-11.29 -11.26)"/><path class="cls-1" d="M487.09,326.09c4.47-1.23,10-.22,12.78,3.74,3.36,4.75,3.57,10.87,3.6,16.48-0.22,5.1-.5,10.57-3.41,15-4.34,6.66-15.94,6.1-19.56-1-3-5.84-2.79-12.69-2.44-19.08C478.35,335.22,480.62,327.82,487.09,326.09Zm0.91,2.59a8.79,8.79,0,0,0-5.16,5.17c-2,4.74-1.87,10-1.76,15.06,0.16,4.06.89,8.33,3.43,11.63,3,3.44,9.35,3.77,12.29,0,3.3-3.9,3.43-9.36,3.62-14.2-0.11-4.83-.15-10-2.68-14.29A8.22,8.22,0,0,0,488,328.68Z" transform="translate(-11.29 -11.26)"/><path class="cls-1" d="M522.89,331.59c2.17-3.77,6.22-6.73,10.78-5.95,3.53,0.11,5.68,3.16,7,6.05,1.58-2.23,3.23-4.79,6.05-5.53,3.36-1,7.7-.88,10,2.13,1.9,2.74,2.2,6.21,2.26,9.46,0,9.09,0,18.19,0,27.28l-3.17,0c-0.07-9.68,0-19.36,0-29,0-2.62-.69-5.66-3.14-7a7.26,7.26,0,0,0-8.46,1.53c-2.63,2.86-3.07,7-3.12,10.67,0,8,0,15.91,0,23.86l-3,0c-0.08-9.69.22-19.39-.28-29.07-0.2-2.36-.64-5-2.55-6.64-3.06-2.27-7.72-1-9.81,2-2,2.85-2.34,6.44-2.3,9.82,0,8,0,15.91,0,23.87l-3.19,0c0-12.81,0-25.61,0-38.43l3.05,0C523,328.26,523,329.92,522.89,331.59Z" transform="translate(-11.29 -11.26)"/><path class="cls-1" d="M607.06,326.82a12.79,12.79,0,0,1,11.95.66c3.2,2.28,3.37,6.52,3.72,10.07l-2.82,0c-0.36-2.07-.45-4.25-1.41-6.15-2.63-5.07-11.66-4.07-13.11,1.45-0.88,2.69-.32,6.07,2.05,7.85,4.22,3.16,10,3.58,13.8,7.45,4.25,5,2.65,13.94-3.48,16.66-4.12,1.53-9.21,1.51-12.88-1.13-3.36-2.62-3.62-7.18-3.82-11.09l2.92-.24c0.29,3.37.47,7.41,3.49,9.59a8.94,8.94,0,0,0,10.84-.9c2.92-3.07,3.08-8.53-.2-11.4-4.06-3.46-9.94-3.78-13.83-7.51C600.07,337.8,601.45,329.38,607.06,326.82Z" transform="translate(-11.29 -11.26)"/><path class="cls-1" d="M646.5,326.2c4.27-1.21,9.59-.68,12.61,2.91,3.17,3.51,3.64,8.5,4.06,13,0.2,6.37.32,13.28-3.14,18.92-4.34,7.23-17,6.31-20.17-1.57-2.56-6.21-2.45-13.2-1.89-19.78C638.55,334.31,640.78,327.93,646.5,326.2Zm0.9,2.6c-2.72,1.12-4.45,3.81-5.3,6.53-1.4,4.66-1.42,9.6-1.18,14.43,0.22,3.67,1,7.5,3.24,10.52,3.09,4,10.23,4,13-.36s3.08-10.1,3.05-15.3c-0.2-4.56-.41-9.54-3.24-13.34A8.34,8.34,0,0,0,647.4,328.8Z" transform="translate(-11.29 -11.26)"/><path class="cls-1" d="M707.8,326.12c4.64-1.28,10.45-.14,13.18,4.14,3,4.68,3.22,10.48,3.32,15.87-0.26,5.34-.51,11.2-3.83,15.66-4.93,6.54-16.88,5.12-19.82-2.67-2.58-7.19-2.64-15.17-1.15-22.6C700.38,332,703,327.34,707.8,326.12Zm0.93,2.58c-2.85,1-4.67,3.66-5.6,6.39-1.51,4.43-1.5,9.19-1.31,13.82,0.21,4,.84,8.32,3.48,11.55,3.07,3.8,9.83,3.74,12.67-.32,2.54-3.43,3-7.92,3.2-12.06,0-5.41.17-11.26-2.71-16.05A8.08,8.08,0,0,0,708.73,328.71Z" transform="translate(-11.29 -11.26)"/><path class="cls-1" d="M787.37,327.38a21.71,21.71,0,0,1,6.54-1.53c0,1,.09,1.94.15,2.93-2.67.43-5.68,0.61-7.69,2.66-3.16,2.85-3.82,7.37-3.87,11.41,0,7.4,0,14.8,0,22.21h-3c0-12.81,0-25.61,0-38.41l2.95,0q0,2.85,0,5.72C783.92,330.53,785.23,328.44,787.37,327.38Z" transform="translate(-11.29 -11.26)"/><path class="cls-1" d="M809.16,331.93c1.87-2.29,3.69-5.05,6.76-5.81,3.31-.83,7.35-1,10,1.53,2.78,2.89,3,7.17,3.21,11,0.05,8.82,0,17.65,0,26.48-1.06,0-2.1,0-3.14,0-0.21-9.92.17-19.85-.18-29.76,0-4-3.48-7.54-7.57-6.9-5.36-.08-8.35,5.55-8.59,10.28-0.3,8.79,0,17.6-.11,26.4l-3.19,0c0-12.8,0-25.6,0-38.4l3.05-.17Q809.27,329.2,809.16,331.93Z" transform="translate(-11.29 -11.26)"/><path class="cls-1" d="M849.73,326.67a12.52,12.52,0,0,1,11.89,1c2.94,2.33,3.21,6.33,3.45,9.78l-2.79.09c-0.58-2.84-.58-6.32-3.18-8.18-3.59-2.4-9.72-1.2-11.22,3.14-1.06,2.7-.6,6.14,1.75,8.05,4.41,3.54,11,3.73,14.59,8.39,3.37,5.13,1.75,13.53-4.27,15.93-4.12,1.57-9.3,1.45-12.87-1.34-3.28-2.66-3.37-7.18-3.75-11l2.94-.1c0.42,2.72.32,5.77,2.1,8.06,3.08,4,9.92,3.85,12.92-.16,2-2.89,2.24-7.28-.19-10-4.33-4.67-12.19-4.19-15.72-9.81C842.86,335.85,844.42,328.68,849.73,326.67Z" transform="translate(-11.29 -11.26)"/><path class="cls-1" d="M381.17,326.69l3.19,0c0,8.81,0,17.63,0,26.44,0.14,3,.37,6.45,2.79,8.56,2.26,1.87,5.56,1.61,8.15.61,4.43-2.45,5.52-7.93,5.63-12.59,0.12-7.71,0-15.42.05-23.13h3c0,12.81,0,25.61,0,38.42l-3.07,0c0.11-2,.26-4,0.42-5.94-1.7,2.39-3.44,5.09-6.39,6-3.94,1.51-9.35.84-11.69-3-1.86-3.22-2-7.07-2.08-10.69C381.15,343.21,381.14,335,381.17,326.69Z" transform="translate(-11.29 -11.26)"/><path class="cls-1" d="M679.61,326.67l3.15,0q0.05,20.49,0,41c-0.14,3,0,6.42-2.12,8.81-2.05,2.1-5.24,1.22-7.84,1.39,0-.57-0.09-1.72-0.13-2.3,1.91-.31,4.15,0,5.73-1.35,1.19-1.64,1.15-3.77,1.22-5.71C679.59,354.58,679.63,340.63,679.61,326.67Z" transform="translate(-11.29 -11.26)"/><path class="cls-1" d="M739.92,326.56l3.18,0c0,8.86,0,17.72,0,26.59,0,3,.4,6.42,2.76,8.56,3.17,2.4,8.1,1.56,10.62-1.42s3-6.87,3.05-10.53c0-7.69,0-15.39,0-23.08l3.18-.05q0,19.19,0,38.37l-3,.06c0-2,.1-3.93.24-5.89-1.76,2.52-3.7,5.34-6.84,6.2-3.68,1.1-8.38.59-10.79-2.72-2.1-3-2.26-6.83-2.36-10.34Q739.92,339.45,739.92,326.56Z" transform="translate(-11.29 -11.26)"/><path class="cls-1" d="M125.86,14.35c0.92-1.73,2.75-3.68,4.91-2.92,4.85,0.94,8.1,5.07,10.52,9.06,3.39,4.71,6.75,10,12.23,12.5,4,2.1,6.84,5.69,10.36,8.41a127.08,127.08,0,0,0,10.89,8.71c3.36,2,4.74,6,8.08,8a51.86,51.86,0,0,1,10,8.79,42.76,42.76,0,0,1,8.39,9.39c1.35,5.18,3.84,9.94,5.59,15,1.69,9.48,2.59,19.4-.14,28.79A89.61,89.61,0,0,1,201,131.21c-1.93,3.4-5.08,6.08-6.23,9.92s-3.28,7-4.78,10.52c3.62-1.29,6.69-3.71,10.32-5,5.13-2,9.71-5.62,15.11-6.74,4.14,1.18,8.4.89,12.66,0.86,7.29,2,13.35,6.78,20.26,9.6,2.82,3.18,5.12,6.8,7.61,10.23,1.69,2.48,2.08,5.58,3.77,8.07,3.88,6.07,5.66,13.13,7.46,20,0.55,2.3,1.2,4.68.78,7.06-0.57,4.16-1,8.48-2.9,12.31a110.08,110.08,0,0,1-7.28,9.79c-2.36,2.75-3.33,6.78-6.85,8.43-6.19,3.09-11.63,7.7-18.38,9.63-5.27,1.63-11.42,4.52-16.51.81a96.55,96.55,0,0,0,2.7-11c0.69-4.68,2.67-9.23,2.27-14a64,64,0,0,0-3.45-11.86c-2.79-5.08-8.78-8.82-14.69-7.37-3.12,1.29-6.38,2.68-8.61,5.32a49.05,49.05,0,0,0-10.14,15.34c-2.83,8.7-3.22,17.93-5.55,26.74,2.64,0.68,5.46.87,8,2,2.44,1.62,3.64,4.4,5.43,6.6,1.91,1.46,4.83,1.79,5.84,4.22a60.07,60.07,0,0,1,4.63,13.85c-1.12,2.73-2.9,5.89-6.06,6.5-1.4.34-2.81,0.6-4.22,0.91-0.66,2.47-1,5.41-3.41,6.85-2.35,2.31-5.82,1.22-8.75,1.52l-1.75,2.2c1.33,6.26,2.53,12.56,5,18.52a20.3,20.3,0,0,0,5.6,10.6c2.16,1.83,4.76,3.25,6.4,5.62,1.36,1.92.16,4.29-.23,6.33-6.13.58-11.31-3.28-16.65-5.64a52.75,52.75,0,0,1-13-7.45,54.54,54.54,0,0,1-12.38-18.12c-0.77-3.76-.49-7.67-1.46-11.4l-3.58.22c-0.89,6.3.88,12.49,2.72,18.44,2.32,4.15,2.78,9,4.68,13.28,2.74,5.67,4.95,11.59,7.13,17.5,1.31,6,6,11.41,4.44,17.79-2.13,6.12-9.12,7.27-13.54,11.08-1.91,1.66-4.31,2.49-6.5,3.68-4,2.82-6.46,7.2-10.08,10.43a3.63,3.63,0,0,1-2.75.91c-3-2.41-5.22-5.7-7.45-8.82-5.42-7.73-14.87-11.24-20.75-18.45-1.53-4.6-2.5-9.91-.43-14.5,1.31-3.55,1.67-7.45,3.75-10.71,2.67-4.52,3.21-9.85,5-14.72A64.36,64.36,0,0,0,116.56,299l-2.43.25c-2.46,5.44-4.74,11.22-9.23,15.37A27.87,27.87,0,0,1,87.62,323c-4.32.52-9,2.46-13.13,0.26-1.74-.63-2.51-2.43-3.57-3.78,4.48-6.72,11.86-11.52,14.22-19.56,1.5-4.3,4-10,.08-13.76-1.66-2.51-4.8-2.28-7.38-2.86-3.53-1.66-5.09-5.41-6.66-8.7a19.74,19.74,0,0,1-6.6-8.2c0.38-3.41.37-7.15,2.49-10a41.44,41.44,0,0,1,3-4.67c2.27-2,5.52-2.94,7.06-5.73,2-3.37,5.8-5.63,6.46-9.72,0.84-4.64-.7-9.25-1.06-13.85s-0.74-9.62-3.52-13.55c-2.6-3.79-4.85-8.34-9.34-10.2-5.49-3-12.74-1.06-16.74,3.51-4,5.24-4.68,12-5,18.4A29.82,29.82,0,0,0,51,232.66c0.83,2,2.42,4.12,1.48,6.4a7.42,7.42,0,0,1-3,.32c-4.82-.72-9.74-2-13.54-5.22a37.85,37.85,0,0,1-14.38-16.42c-1.59-3.88-5.05-6.71-6.1-10.87-1.48-5.19-4.62-10.12-4-15.7,0.44-3.7.11-7.59,1.73-11,1.18-2.79,2.15-5.69,3.57-8.38,5-7.29,10.17-14.79,17.55-19.9,7-4.28,15.15-7.44,23.44-6,4.12,1,8.19,2.57,12.5,2.39-0.43-5.16-4.82-8.49-7-12.87-1.74-3.47-3.33-7-4.86-10.56-1.18-3.65-.72-7.58-1.6-11.29-0.38-2.38-1.59-4.53-2-6.9,0.13-2.84,1-5.61.95-8.46-0.51-4.85,1.81-9.34,2.83-14,2.35-4.46,3.36-9.76,7-13.41C68.45,67.68,70,63.37,73.65,61c3.65-1.87,6.25-5.15,9.78-7.21,8-6.32,18.58-9.35,24.93-17.69C115,29.62,121.3,22.52,125.86,14.35ZM111.72,38.61c-4.07,3-6.33,8-10.9,10.36-3.49,2-6.91,4.39-9.09,7.88a19.89,19.89,0,0,0,8.34-5.23c2.5-2.68,5.94-4.18,8.54-6.74,3.06-2.62,5.8-5.59,8.89-8.17,4.28-4.83,8.4-9.88,11.4-15.62C122.47,26.23,118.17,33.48,111.72,38.61Zm13.75-4.11c-1.57,3.18-5.2,4.55-6.89,7.62-2.19,3.58-7.38,4-9.22,7.83-0.85,1.49.72,2.73,1.34,4a21,21,0,0,0-2.24,5.23c-0.73,3.93-2.37,7.67-2.57,11.69-0.36,5.72-1.22,11.63.47,17.21,1.26,4.62,2,9.38,3.72,13.87,0.95,1.6,2.56,2.67,3.93,3.89,0.91-1.81,1.89-3.87,1.1-5.92A26,26,0,0,1,113,89.15l2,1.26c1.5,4.27,2.63,8.66,4.4,12.84l2.34-2.2a43.66,43.66,0,0,0-2-10.24c-1.69-4.29-.89-9-1.7-13.45,0-5.6-1.59-11.16-.66-16.74-0.32-3.18-1.32-6.56.87-9.34,1.73,0.15,3.46.25,5.2,0.32-1.9,10.51-.32,21.19-0.14,31.78,2.73,0.51,5.49.94,8.26,1.24a82.11,82.11,0,0,0,.78,11.19c1.75,0.66,3.52,1.34,5.26,2.05,1.9-3.82.9-8.15,0.74-12.21-1.75-8.44-2-17.14-4.27-25.48a37.92,37.92,0,0,0-1.15-11.71c-1-3.19.47-6.7-1.1-9.73-1.32-2.78-1.65-5.84-2.38-8.79A9.49,9.49,0,0,0,125.46,34.5Zm8.72-2.83c0,1.43,0,2.86,0,4.3,1.35,0.14,2.72.28,4.08,0.4A5.39,5.39,0,0,0,134.19,31.68Zm0.29,7.84c0.4,1,.83,2.09,1.25,3.13,2.06-.23,4.11-0.55,6.18-0.7,0.17,1.06.34,2.13,0.5,3.19-1.58.66-3.19,1.25-4.73,2,0.77,2.19,3.77,1.64,5.67,2a62.15,62.15,0,0,1,4.92-4.67c-1.34-2.11-2.21-5.49-5.23-5.48A50.66,50.66,0,0,0,134.48,39.51Zm17.37,8.37c-1.13,1.69,2.62,2.45,2.84.79A1.68,1.68,0,0,0,151.84,47.88Zm-12.3,4.81c0.24,0.44.7,1.32,0.94,1.75l2.09-.66c0.13-.83.24-1.64,0.36-2.46C141.78,51.76,140.66,52.23,139.54,52.7Zm3.9,23.58c1.15-.13,2.3-0.28,3.46-0.42a77.55,77.55,0,0,0,2,7.81c1,3.76-.09,7.66.51,11.46,0.36,2-.05,4.09-0.11,6.14a29.74,29.74,0,0,0,3.86-9.85,11,11,0,0,0,4.45,1c2.65-11.22.39-23-3.36-33.69a26.56,26.56,0,0,0-6.38-8C142.52,58,142.52,67.7,143.44,76.28Zm12.37-22.56c1.7,3.77,4.28,7.12,5,11.31,3.93,6.45,3.42,14.33,2.33,21.51-0.45,4.46-2.67,8.51-3.18,13l2.87-.5,0.78,2.44a61.84,61.84,0,0,0-5.72,9.57c4.22-3.51,8.27-7.83,9.36-13.39,3.06-6.46,2.88-14,1-20.74-0.65-2.61-2.07-5-2.61-7.61A5.93,5.93,0,0,1,170,71.12c1.06,4.36,2,8.86,4.28,12.79A86.83,86.83,0,0,0,189,81.83l1.89-1.68c-1.55-.72-3.13-1.75-4.91-1.44a46.12,46.12,0,0,1-11.62.1l-0.5-2.21c3.48-2.13,7.66-.92,11.46-1.74A14.62,14.62,0,0,0,183,70a15.25,15.25,0,0,1-12.58.74c3.07-2.29,7-1.69,10.54-1.5a29.39,29.39,0,0,0-2.22-3.07c-3.64-.21-7.27.86-10.89,0.38-1.31-.16-1.59-1.46-1.84-2.52,1.29-2.1,4-.66,5.93-0.79,1.41,0.29,2.08-1.44,3.08-2.1-4.58-.33-9.79.42-13.36-3.19,1.36-1.18,2.77-2.32,4.09-3.55A11.39,11.39,0,0,0,155.81,53.72ZM76.13,68.6c-0.89.9-.72,2.23-0.81,3.4,2.39-1.83,4.23-4.25,6.64-6,2.27-2.18,5.39-3.81,6.24-7.08A36.22,36.22,0,0,0,76.13,68.6ZM98.88,62c2.06,5.6-2.12,10.52-5.34,14.65-1.42,1.36-.81,3.41-0.84,5.14,0.32,3.35-1.06,6.63-.46,10,1.35,5.24,1.13,11.42,5.83,15.1,0.4-2.94,1.34-5.82,1.43-8.78-0.65-3.44-1.51-6.89-1.24-10.43,1.41-2.33,2.89-4.82,2.67-7.67-0.32-6.15,3.21-11.71,2.73-17.87C102.08,62.08,100.47,62,98.88,62Zm-6.75,1.06-7,6.9a43.18,43.18,0,0,0,9.44-.32C91.71,68,87.63,67.53,85.11,70ZM66.64,83.08c-1.3,1.26-.77,3-0.37,4.54C68.61,84.4,69,80,72,77.29a10.38,10.38,0,0,0,3.2-5.77C70.88,74,69.52,79.25,66.64,83.08Zm15.53-8.76c-1,1.25,1.16,2.64,2,1.32C85.21,74.39,83,73,82.17,74.32Zm-2.95,4.82c-1.33-.2-2,1.32-3,1.93,3.86,0.56,7.89-.32,11.57,1.29,0.06-1.42.11-2.84,0.16-4.26C85.09,78.76,82.19,79.46,79.22,79.14Zm-4.94,5.47c0,0.67,0,2-.05,2.67,3.7-.4,8.47-1.62,10.76,2.31-4.28,2.59-9.34-.09-13.89,1.59,4.11,3.17,9.62.85,14.29,2.38l-0.71,2.5c-4.73,1.17-9.65.69-14.47,1,0,0.49,0,1.46,0,1.94,5.67,0,11.82-.95,17.09,1.62-1.2.79-2.39,1.79-3.92,1.71-4.49.22-9.09,0.55-13.43-.83-0.61.94-1.24,1.89-1.84,2.84,4.34,2.74,9.25,0,13.93.8,1.12,0.24,2.88-.23,3.13,1.35-0.13.26-.39,0.76-0.53,1a37.23,37.23,0,0,1-7.2,1.79c-2-.12-3.88-0.78-5.85-0.61a35.4,35.4,0,0,0-3.1,2.16A9.05,9.05,0,0,0,75.29,112c3.53-1,7.21-.52,10.82-0.83,0-1.77-.14-3.54-0.05-5.31a20.55,20.55,0,0,1,3.82-3c-0.61-2.94-2.45-5.42-3.17-8.3A82.57,82.57,0,0,0,87.19,84,22.3,22.3,0,0,1,74.28,84.61Zm101,2.31c-0.28,1.07-.56,2.15-0.83,3.24C180.39,88,186.76,88.51,193,88c-1.16-.92-2.15-2.61-3.86-2.07C184.52,86.64,179.9,86.66,175.29,86.92Zm24.05-.66c0,4.06,2.43,7.61,2.23,11.68,1,9,.56,18.28-3,26.65a40.86,40.86,0,0,0-3.19,6.37l2.56-.09a46.88,46.88,0,0,1,4.31-10.22c1.7-2.81,1.52-6.19,1.92-9.33-0.16-6.89.82-14.05-1.73-20.65A9.46,9.46,0,0,0,199.34,86.25ZM174.4,92.6c1.17,5.26-.2,10.51-0.4,15.79a125.89,125.89,0,0,1,21,1.52c-1.24.91-2.55,2-4.19,1.84-5.1.14-10.2-.15-15.31,0-1.41,0-2.61.75-3.84,1.26,0.95,0.92,1.56,2.63,3.13,2.52,6.46,0.08,13-.9,19.39.23A49.12,49.12,0,0,0,196.29,105c-6.13-.26-12.26-0.26-18.39-0.33-0.1-.39-0.3-1.18-0.39-1.57,4.95-3,11-1,16.42-1.1,2,0.24,1.28-2.43,1.61-3.57-5.58.92-11.21,1.55-16.8,0.43-1.65.38-2-2.71-.43-2.72,4.93-1.5,10.1-.45,15.15-0.89,0.2-1,.39-2.08.58-3.11C187.48,92.07,181,93.05,174.4,92.6Zm-30.84,3.68,3.25-.83c-0.34-1.25-.71-2.5-1.08-3.73C144.94,93.2,144.24,94.74,143.56,96.28Zm-17.18-.07c0.11,4.17,1.94,8.1,3.78,11.77,0.29-1.11,1-2.27.36-3.4-1.23-2.67-.83-5.61-0.91-8.45Zm15.76,6.73,0.95,1.69c0.66-1.29,1.33-2.58,1.9-3.91A28.6,28.6,0,0,0,142.14,102.94Zm-22.48,1.23a10.48,10.48,0,0,0,4.71,7.84,25.69,25.69,0,0,0,.89-4.53C123.76,105.85,121.61,105.11,119.66,104.17Zm-5.41,2.94c1.24,3.09,3.27,6.46,7,6.59C119.67,110.88,117.64,107.85,114.26,107.1Zm-11.13,2c-0.44,1.36,0,1.81,1.44,1.37C105,109.06,104.51,108.6,103.12,109.06Zm-11.38.31a8.22,8.22,0,0,0,4.59,8.33C94.82,114.9,95.11,110.66,91.74,109.36Zm70.86,4.23c1.41,2.05,3.5,1.09,5.28.16-0.5-1.12-1-2.22-1.59-3.31Q164.42,112,162.61,113.6Zm-84.49,2.19c-2.67.59-6.61-1.64-7.68,2a80.5,80.5,0,0,0,15.69-.48l0.68-1.63C84.25,113.48,81,115.73,78.12,115.78Zm48.27-.78c0,0.67.09,2,.13,2.68,1.12-.46,2.22-0.95,3.31-1.46C128.68,115.8,127.53,115.4,126.38,115Zm46.54,3.32c-2.11.09-2.4,2.64-2.54,4.28,0.5,4.44.74,9-.38,13.34a31.42,31.42,0,0,0-4.51,7.53c2.83-.61,6.38-0.13,8.3-2.75,2.23-2.9,5-5.35,7.23-8.24-2.1-.71-4.27-1.16-6.4-1.67,0.15-.43.47-1.26,0.62-1.69a29.76,29.76,0,0,1,11.18-.36,3.59,3.59,0,0,0,3.88,2.72c1.25-4,2.23-8.07,3.81-12l-0.89-1.69C186.51,119.09,179.68,117.68,172.92,118.32ZM72.79,121.47c-0.13.95-.25,1.89-0.35,2.85,5.63-.67,11.29,0,16.95-0.32l-1-2.44C83.19,121.14,77.95,120.33,72.79,121.47Zm30,1.3a10.26,10.26,0,0,0,4.73,2.95c0.05-1.76.09-3.52,0.07-5.27C105.93,121.15,104.33,121.93,102.77,122.77Zm26.45,1.45c-1.28,2.53-1.73,5.38-2.52,8.08a28.29,28.29,0,0,0,6.86,2c2-.28,4.58-0.54,5.57-2.6C140.45,126.38,133.95,121.66,129.22,124.22Zm-54,4.75c1.49,0.66,3,1.79,4.69,1.44,4-.4,8.55-1.2,11.88,1.53-0.51-1.86-.88-3.75-1.28-5.63C85.58,128,80.14,126.91,75.25,129Zm40.3-2.21c-1.07,1-1.15,2.46-1.42,3.77,1.6,0.35,3.21.66,4.81,1-1,1-2,2.09-2.95,3.18l3.78,0.23c-0.25-3,.33-6.06.08-9.08C118.41,126,116.79,125.83,115.56,126.75Zm48.09,3.12c-0.24,1.58,1,2.84,1.6,4.19a11.93,11.93,0,0,0,.86-6.92A20.74,20.74,0,0,0,163.65,129.87Zm-15.6-.45c-0.38,3.79-2.38,7.1-3.63,10.65,1.22-.05,2.44-0.08,3.67-0.08a54.06,54.06,0,0,0,1.66-5.36A40.06,40.06,0,0,0,148,129.42ZM86,134.08c-3.24.08-6.71-1.48-9.68,0.49,0.24,1.92,2.45,2.2,3.79,3.16,1.42-1,2.84-2,4.23-3a45.94,45.94,0,0,0,7.77,1.14c0.26-1.12.51-2.26,0.75-3.38C90.55,133,88.36,134.13,86,134.08Zm86.65,18.58c-1.81.39-3.69-.08-5.51-0.08-4.45,5.5-7.18,12.1-9.58,18.7-2,3.92-2.8,8.28-4.24,12.42l-3.6-.22c-1.25,7.21-1.87,14.53-3.35,21.71a29.87,29.87,0,0,0-.49,6.92l-2.28,1.17a54.32,54.32,0,0,1,.37-9.91l-1.82-.12c-0.08,5.57-1.87,11-1.48,16.57,0.21,1.93-1.43,3.25-2.5,4.63,1.25,1.29,2.66,2.69,2.61,4.63-0.36,1.8-2.21,2.54-3.27,3.87-0.49,2.24-.88,4.5-1.33,6.75,5.16,1,10.45.22,15.64-.14,3.36-.11,6.58,1.47,9.95.88,4.42-.8,8.91.41,13.33-0.5a40.24,40.24,0,0,0-1.36-6.2c-2.9,2.34-5.81,5-9.79,5.1,0.42-3.39,4-4.41,5.7-7,1.86-2.2,1.62-5.28.43-7.73-2.13-.37-4.89-0.1-5.88-2.51,1.32-2.11,3.36-3.62,4.83-5.6,2.71-3.53,6.94-5.74,9-9.77,0.72-1.12.62-3-.81-3.44-2-1.87-4.74-.71-7.1-0.54,0.09-.72.25-2.16,0.33-2.89a51.51,51.51,0,0,0,6.75-4.47q-1.74-.95-3.44-1.9a8.85,8.85,0,0,1,6.44-4.7,39.47,39.47,0,0,1-2.08,5.9c3.93-1.9,5.68-6.08,6.34-10.16-1.88-1-4-1.87-6.12-1.4-2.72,1.51-3.93,4.7-6.69,6.18-4.68,2.79-5.56,8.65-6.94,13.46-0.93,4.16-3,8-3.2,12.36-0.87,7.58-2.75,15.08-2.22,22.77a15.78,15.78,0,0,1-4.25-3.55c-0.42,1.4-.84,2.8-1.29,4.2l-2.27,1a23.21,23.21,0,0,1-1.84-10.65c-1.19-6.19,2-12.18,1.46-18.31,4.21-9.8,7.54-20,12.52-29.44,4.34-6.4,7.5-13.68,13-19.27,2.77-2.92,4.44-6.89,8-9,2.07-1,2.19-3.51,3.17-5.35,1-2.55,3.3-5.06,2.36-8-1-1.82-3.43-1.72-5.14-1.12C179.28,141.46,177.75,148.62,172.62,152.66ZM85.09,140.54l1.82,2.25c3.12-.35,6.24-0.64,9.36-0.89,0.12-.64.34-1.9,0.45-2.54A50.35,50.35,0,0,0,85.09,140.54Zm18.52-1.13c1.8,3,5.3,4.32,8.26,5.83,5.21,0.26,10.8,2.27,15.69-.55-1-2.73-3.42-5.84-6.67-5.33-2.28-.05-4.62.16-6.44,1.69C111,143.87,107,140.38,103.61,139.4ZM76.17,142a14.05,14.05,0,0,0,2.24,4.49,154.94,154.94,0,0,0,11.14,12.72c3.17,4,5.49,8.57,8.94,12.31,4.66,4.49,5.77,11.16,7.71,17.05,2.48,5.31,3.78,11,5.43,16.62a46.09,46.09,0,0,1,2.29,20.43c-0.48,4.88-2.17,9.82-1.11,14.73,4.11,0,8.22-.6,12.32-0.07a22.78,22.78,0,0,0,8.36-.78c-0.57-2.48-2.51-3.71-4.8-4.37,0.07-.55.22-1.66,0.29-2.21l3.1-.43c0.23-1.74.49-3.46,0.67-5.2-2.54-1.18-5.14-.69-7.72,0-0.77-2.86-1.33-5.94-.59-8.85,1-1.78,2.61-3.13,3.83-4.75-2.06-1-4.14-2-5.44-4a13.4,13.4,0,0,1,4.76-1.43c-0.14-2.73-.26-5.48-0.56-8.19a8.33,8.33,0,0,1-6.9-3.52c0.71-3.86-.41-7.86.78-11.63,1.27,1.23,2.44,2.56,3.69,3.82a45.39,45.39,0,0,0-2.56-8.14c0.55-1.39,2-2.59,1.81-4.15a33.06,33.06,0,0,0-5.45-7.78c-3.55-3.91-8.59-5.79-13.13-8.23-2.77-1.36-4.14-4.62-7.15-5.59-2.57-.87-5.26-1.52-7.36-3.35,2.12-2.05,5.14-1.46,7.82-1.73a27.71,27.71,0,0,0,5.66-1.35l-0.82-2.65c-5.22-1.41-10.76.18-15.8,1.69-3.18-.68-4.8-4-7.62-5.39A32,32,0,0,0,76.17,142ZM133,149c0.53,1,1.15,1.89,1.75,2.83a51.24,51.24,0,0,1,4.15-3.41c0.08,3,.09,6.09.37,9.12,4,0.18,6-3.7,8.62-6a11.21,11.21,0,0,0-2.75-2.78c-2.55-.43-5.14-0.39-7.69-0.85C135.93,147.67,133.74,147.13,133,149Zm-9.16,1a40.67,40.67,0,0,1-1,6.94q1.8,0.87,3.63,1.71c0.47-1.64.89-3.29,1.29-4.94l2.31,1.44c0.6-1.79,1.29-3.53,2-5.3C129.39,148.4,126.6,149.27,123.86,150Zm27.33,4.85c3.91,0.59,6.89-3,8.34-6.27C155.54,148.44,153,151.75,151.19,154.84Zm53.71-2.44a5.74,5.74,0,0,0,4.85,1.28c0.2-.78.57-2.36,0.77-3.14A14.92,14.92,0,0,0,204.9,152.4Zm-100.66.66c1.87,3.16,5.64,2.69,8.75,2.23a5.28,5.28,0,0,0-1-4.14A15.63,15.63,0,0,0,104.25,153.06Zm122.64-.78a16,16,0,0,0,4.83,6.39c1.44-.5,2.87-1,4.3-1.57C235,153.21,230.65,151.19,226.89,152.28Zm-14.35,4.13c-1.92,2.76-1.06,6.36-.6,9.45,3-1,2.75-5.54,5.85-5.85,2.24,2.65,1,6.17,1.23,9.28,2.94-3.46,5.11-8.65,3-13.06C219.39,154.06,215,153.83,212.54,156.41Zm-55.22,6.33a23.16,23.16,0,0,0,4.28-6.34C158.83,157.39,157.93,160.14,157.32,162.74ZM128.51,158q-0.68,2.07,1.4,1.37C130.36,157.92,129.89,157.47,128.51,158ZM194,161.73a18.12,18.12,0,0,0-1.89,17.09c0.83,0,1.66-.09,2.49-0.16,1.84-3.56,1.93-7.94,4.7-11,0.78,1.74,1.48,3.51,2.26,5.26a19.27,19.27,0,0,0,2.1-11.86,3.69,3.69,0,0,0-2.14-3.31C198.53,157.83,196.12,159.94,194,161.73ZM133.86,163c-0.32,4.84.18,9.85,2.48,14.21A35.69,35.69,0,0,1,138.66,167c-1-.49-2-1-3-1.43a19.66,19.66,0,0,0-.09-6C134.84,160.62,133.9,161.65,133.86,163Zm-88.55,1.45c0.5,2.27,1.06,4.69,2.93,6.28s2.22,3.82,3.11,5.83c-0.94-2.65-1.82-5.64.46-7.91a30.94,30.94,0,0,1,4.39,5.92l2.66,0.28a101,101,0,0,1-4.43-9.67c-0.79-2.64-4-4.06-6.57-3.51A28.2,28.2,0,0,0,45.32,164.45Zm18.24-1.53c-0.55,1.37-1.58,2.78-1.08,4.33a61.36,61.36,0,0,0,3.09,9.35c0.89-1.77,1.64-3.61,2.5-5.39,1.78,2.34,2.25,5.27,2.72,8.09l2.61,1.43c0.56-3-1.52-5.67-1.45-8.68a10,10,0,0,0-2-6.09A21.16,21.16,0,0,0,63.56,162.92Zm76.31-.05c-1.1.6-1.1,1.19,0,1.77C140.95,164,141,163.41,139.88,162.87ZM34.82,167.33a21.29,21.29,0,0,0,5.37-1l-1.87-3A21,21,0,0,0,34.82,167.33Zm86.15-4.2a7.41,7.41,0,0,0,4.39,3.93c0.09-1.12.18-2.24,0.26-3.36A40.4,40.4,0,0,0,121,163.13ZM154.74,170c2.21-1.77,2.24-4.57,2.35-7.15C156,165.16,154,167.36,154.74,170Zm73.5-3.79c-1.56,3-3.71,5.85-4.27,9.28,3.9-.66,6.28-4.22,9.88-5.54-0.91,3.7-4.33,5.87-6.14,9.06,4.95-.49,9.63-3.88,11.07-8.72a7.8,7.8,0,0,0-4-6.82A5.73,5.73,0,0,0,228.24,166.25Zm15.38,1.13a20.09,20.09,0,0,0-.36,5.49c0.75,1.93,3.19,1.58,4.83,2.17C247.28,172.14,246.33,169.06,243.62,167.38Zm-68.5,10.18c-1,1,.88,2.25,1.85,2.07a19.55,19.55,0,0,0,7.89-5.26c1.12-2.09-.29-4.1-1.16-6C179.48,169.79,177.39,174.08,175.13,177.56ZM83,168.3a18.89,18.89,0,0,0,2,8.19c1.09,2.33,1.12,5.65,3.9,6.71,1.58,1.57,2.77-.65,4-1.51C89.9,177,87.11,172.07,83,168.3Zm62.61,9.81,1.82,0.78a20,20,0,0,0,2.09-9.9A87.82,87.82,0,0,0,145.59,178.11ZM32.66,175.56c0.21,2.83,2.81,4.74,4.83,6.42,1.53-.77,2.41-2.86,4.29-2.74,2.17,0.08,3.64,1.92,5.29,3.09-0.78,1.32-1.6,2.63-2.35,4,2.51,0.9,4.46-.72,5.76-2.69-3.41-2.88-5.62-6.75-8.49-10.08C39.26,170.38,34.22,172.07,32.66,175.56Zm44.78-2.44c-0.62,2.9,2.27,4.74,4,6.59a10.82,10.82,0,0,0-2.26-8.78ZM23.51,189.55a31.3,31.3,0,0,0,5-5.16c1-2-.45-4.16-1.15-6A27.48,27.48,0,0,0,23.51,189.55ZM242,179.23c-1,1.06-1.88,2.12-2.8,3.2,1.38,0.73,3.28,1.35,3.21,3.28-2,1.5-4.87,1.66-6.22,4,3.67,0.14,7.67-.24,10.64-2.61,1.15-2.8-.66-5.43-2-7.74Zm-109,1.45-5.87,1.88a12.66,12.66,0,0,0,3.08,9.8A31.12,31.12,0,0,0,127.09,182.56Zm62,0.32a5.54,5.54,0,0,0,4.67,3.35C192.71,184.41,191.27,183,189.06,182.88Zm-44.74,8a8.06,8.06,0,0,0,2.07-7.56A20.39,20.39,0,0,0,144.32,190.84ZM83.64,189c1,1.28,1.69,3.88,3.82,3.14a13.4,13.4,0,0,1,7.39-.44,14.94,14.94,0,0,0-4.72-6.77A18,18,0,0,0,83.64,189Zm54.76-3.74c-1.75,3.59-2.22,7.69-3,11.57-0.28,2.09,2.33,2.16,3.68,2.9,0.58-2.78-.28-5.71,1-8.33a11.17,11.17,0,0,0,.75-7.32ZM32.65,187.76C30,188.27,29,191,28,193.06c0.77,0.83,1.51,1.7,2.33,2.5,1.24,1.55,3.26.41,4.88,0.43a39.6,39.6,0,0,0-1.77-4.21c1.75-.71,3.5-1.39,5.25-2.09C36.75,188.85,34.88,187.11,32.65,187.76Zm218,1.6a31.57,31.57,0,0,0-.09,5.6,26.8,26.8,0,0,1-15,.57,58.21,58.21,0,0,1,1.49,9.69A14.88,14.88,0,0,1,243,204c2.28-.16,5.3.38,6.58-2.06A15.56,15.56,0,0,0,250.69,189.36Zm-228,7.19a5.08,5.08,0,0,0,3,3.53c0.07-1.34.11-2.67,0.13-4Zm160.52,0.3c-1,1.2,1.13,2.25,1.87,1.13C186.1,196.79,183.91,195.74,183.2,196.84ZM91,201.08c1.62,1.29,3.42,2.33,5.09,3.53,3.79,2.33,4.16,7.58,8.29,9.62q0.45-2.66.8-5.3a91.39,91.39,0,0,1-8.35-10.64A14.41,14.41,0,0,0,91,201.08Zm161,8.47c-3.59,5.44-8.43,10-11.71,15.63a13.61,13.61,0,0,0,6.43-3.82c5.36-4.6,8.7-10.94,11.69-17.21,0.84-1.34,0-2.82-.26-4.17C256,203.07,254.6,206.69,252,209.54ZM30.19,203.78q-0.1,1.53-.18,3.09a18,18,0,0,0,6.85,1.49c0.33-1.58.49-3.19,0.72-4.77A10.4,10.4,0,0,0,30.19,203.78Zm107.42,8.27c2-3,1.18-6.72,1.24-10.06C134.17,203.38,135.86,209,137.61,212.05ZM22.12,205.88a10.08,10.08,0,0,0,2.21,5.73c1.94,0.8,3.82,1.72,4.89,3.64,2.56,2.37,4.81,5.14,7.78,7,0.83-3.23.39-6.52-.09-9.75-2.75-.17-5.77.55-8.29-0.87C26.46,209.62,25.67,205.84,22.12,205.88Zm215.38,1.75c-1.89,4.07-1.77,8.82-4.25,12.67,1.79-.47,3.88-0.66,5.14-2.17,2.33-2.87,5.43-5,7.72-7.89A29.77,29.77,0,0,1,237.51,207.63ZM93.23,209.77a19.7,19.7,0,0,0,3,4.91c2.18,2.15,3.15,5.3,5.81,7a12,12,0,0,0-1.74-4.41C98.25,214.47,96.8,211,93.23,209.77ZM176,214.52a24.79,24.79,0,0,0-.83,4l2.63,0.2c0.7-2,1.29-4.05,1.84-6.11C178.34,213.14,176.85,213.37,176,214.52ZM228.9,222c1.41-.7,2.8-1.46,4.19-2.19l-3.38-1.36C229.43,219.58,229.15,220.77,228.9,222Zm-128.42-.49c-0.11,3.31,1.42,6.53.83,9.83a14.48,14.48,0,0,0-6,4.25c-0.89-2.57-1.46-5.24-2.36-7.81a31.71,31.71,0,0,0-2.37,12c0.88,1,1.93,1.92,2.9,2.9a14.88,14.88,0,0,1,3.72-2.44c2.67-.19,5.33.3,8,0.34a9.11,9.11,0,0,0,.57-4.85c-0.4-2,.45-4.12.06-6.12A31.2,31.2,0,0,0,100.47,221.47Zm-7.51,3c-0.75,1.06-.55,1.65.6,1.77C94.33,225.14,94.13,224.55,93,224.44Zm-56.09,1c-0.15.7-.44,2.1-0.59,2.79,2.3,1.88,4.8,3.92,8,3C42,229.09,39.34,227.4,36.88,225.47Zm45.59,20.82c-0.59,1.71,1.39,2.31,2.67,2.59,6.85,0.06,13.68-.69,20.52-0.46a64.89,64.89,0,0,1,11-.37c5.38,0.51,10.74-.91,16.11-0.2,5.71,0.69,11.4-.63,17.11,0a93.57,93.57,0,0,1,18.72.32c5.33-.06,11.36.6,15.8-3a17.42,17.42,0,0,0-11.56-1.64c-5.93,1.23-11.92-.53-17.88-0.06-5.67.6-11.35-.43-17-0.09a278.76,278.76,0,0,1-29.83.07,44.58,44.58,0,0,1-14.5-.5C89.83,243.81,85.3,243.11,82.47,246.29Zm95.09,4.48a12.39,12.39,0,0,0,3,7.29c1.87,2,2.21,4.72,3.07,7.18,2.19,2.24,5.82,1.35,7.53-1-3.23-2.72-5-6.69-8.22-9.4-0.5-1.19-.83-2.46-1.43-3.6A16,16,0,0,0,177.56,250.77Zm-17,1.33c0.6,3.25,2.89,5.77,5,8.2,1.35,1.68,1.61,4,2.92,5.66,2.63,0.72,5.83.79,7.13-2.08-3.1-1.84-6.18-4.19-7.62-7.6-1-1.89-1.45-4.44-3.72-5.26A26.25,26.25,0,0,0,160.56,252.1Zm-18.64,2a49.11,49.11,0,0,0,5.27,6.62c1.51,1.64,1.15,4.38,2.79,5.83a40.45,40.45,0,0,0,5.37-.21,25.19,25.19,0,0,0-5.26-7.72c-1.69-1.57-1.69-4.52-4-5.49C144.7,252.3,143.26,253.76,141.92,254.15Zm-63.33,1.37c2.64,4.14,5.81,8,7.64,12.57l4.15-.08a11.41,11.41,0,0,0-3-6.19c-2.37-2.49-3.28-6-5.66-8.42C80.66,254.1,79.62,254.79,78.59,255.52Zm17.81,0.82a70.22,70.22,0,0,1,5,9.41c0.54,1.91,2.75,1.34,4.22,1.28-1.85-4.85-3.94-9.61-7.21-13.69C97.75,254.33,97.08,255.33,96.4,256.34Zm15.39-1c2.14,3.3,5.14,6.28,5.71,10.35,0.11,2.21,2.77,2.35,4.29,3.22,1.06-.62,2.15-1.21,3.19-1.88,0.29-1.56-1.42-2.18-2.31-3.09-3.13-2.39-3.68-6.85-6.87-9.17C114.59,253.86,112,253.21,111.79,255.36ZM128,253.81c0.35,1.69.49,3.58,1.7,4.92,2.12,2.44,3,5.56,4.12,8.53a12.34,12.34,0,0,0,6.07-1.4,55.26,55.26,0,0,1-9-11.81Zm12.34,18.88c-4.5.43-9-.9-13.5-0.28-6.24.67-12.56-.86-18.75,0.49a127.9,127.9,0,0,0-17.89-.3c-3.79.17-7.84-.37-11.25,1.66l-0.2,2.79a37.16,37.16,0,0,0,7.14.66c8.82-.14,17.65-0.39,26.45-1,3.69-.09,7.39.6,11.07,0,8.23,0,16.48.66,24.71,0,5.4,0,10.77.66,16.15,1,6.46-.69,13-0.12,19.44-0.83,1.81-1,1.16-3.24,1-4.91-4.17-1.12-8.51-.32-12.76-0.38-6.55.83-13.11-.57-19.66,0.14C148.35,272.16,144.27,271.59,140.36,272.69Zm18.55,10.65c-0.89,1.25,0,2.67.26,4,1.5-.59,2.93-1.85,4.64-1.43s3.19-.63,4.75-1c0-.56-0.14-1.7-0.18-2.27C165.25,282.86,161.78,281.59,158.91,283.34Zm15-.35a10.19,10.19,0,0,0,.6,8C175.9,288.5,176.29,285,173.9,283ZM94,296.75c-1.64,2.64-1.64,6-3.52,8.51-1.17,1.18-2.88,1.58-4.22,2.54A24.55,24.55,0,0,0,85,311.47c4.1-1,8.09-2.75,11-5.91a10.31,10.31,0,0,1-.1-9.33c2-3.26,2.31-7.12,2.82-10.81C96,288.73,96.17,293.18,94,296.75Zm71.86-3.9c-0.66,1-1.3,2.08-2,3.13,2.15,2.46,5.07,4,7.45,6.2,0.95,1.73,1.72,3.55,2.67,5.28,1.06-.66,2.1-1.34,3.17-2l2.19,3.22c0.11-1.5.05-3.06-1.34-3.94-2-.79-4-1.36-5.89-2.29-0.29-1.71-.57-3.42-0.8-5.14A12.68,12.68,0,0,1,165.9,292.85Zm-46.06,4.46c0.72,5.07-1.49,9.86-1.06,14.91a34,34,0,0,0,3.13-11.78l2.47-.43c-0.24,3-.69,6.08-0.12,9.11,0.77-2.08,1.49-4.17,2.22-6.25,0-2.2-.43-4.36-0.55-6.54C124.35,298.35,122,297.75,119.84,297.31Zm10.47,5.55c-0.9,1.63-.3,3.61-0.56,5.39,0,2.89-1.68,5.62-1,8.53a29.93,29.93,0,0,0,2.72,7c1.21,0.35,3,1.14,3.85-.2,1.86-1.64,1.08-4.73,3-6.25a24.09,24.09,0,0,0,4.24-4.29c-1.61.34-3.19,0.79-4.78,1.19-1.32-1.74-1.36-4.4-3-5.76-0.6,1.31-1.18,2.65-1.85,3.94a35.57,35.57,0,0,1-1.28-5.54l2.82,0.78,0.78,0c-0.1-2.44-.57-4.85-0.14-7.28A30.43,30.43,0,0,1,130.31,302.87Zm-31.43,5.71c-1.44,2.19-3.75,3.51-5.78,5.05a6.28,6.28,0,0,0,7-1.28c2.14-2.21,5-3.83,6.46-6.62a24.42,24.42,0,0,0-.4-3.25C102.7,302.93,100.72,306,98.88,308.57Zm45.54-3a7.4,7.4,0,0,0,2.9,4.91C146.81,308.59,146.11,306.7,144.42,305.57Zm21.93,1.89a30.58,30.58,0,0,0,4.56,3.88A5.78,5.78,0,0,0,166.36,307.46Zm-43.87,11.76c3-2.38,2.46-6.3,2-9.63A13.25,13.25,0,0,0,122.48,319.22Zm-7.82,2.8c3-.13,4.11-2.94,4.85-5.37C116.15,316,115.27,319.48,114.66,322Zm29.85,4.07c1.5,6.67,2.73,14.08-.73,20.38l-3.19-1.85,0.65-2q-1.38,2.76-3,5.39c-0.93-.78-1.82-1.59-2.68-2.42L133.07,347c-1-2.11-2.41-4-4.86-4.4-1.85-2.67.9-5.63,0.29-8.47-0.47-2.53-.63-5.1-0.87-7.67-0.47,1.37-.89,2.76-1.29,4.16l-1.89-1c-0.14-1.94-.26-3.88-0.6-5.79-2.7.72-5.43,1.91-7,4.32-2,2.41-.91,5.74-0.41,8.48,1.27-1.58,2.13-3.64,4.2-4.31a32.92,32.92,0,0,1-.1,5.65c-0.25,1.6-1.29,3.14-.78,4.8,0.14,3.2,3.69,4.85,3.86,8.06,0.28,2.43,2.44,3.89,4.47,4.85,2.24,1,4.29,3.25,7,2.61,3.49-1.73,6.28-4.55,8.86-7.42,2.37,0.49,4.91,2.19,7.27.72,3.64-1.48,4.32-5.77,5.34-9.08a26.69,26.69,0,0,1-2.7-3.59c0.56-1.64,2.1-3.07,1.74-4.92a61.38,61.38,0,0,0-1.18-9,34,34,0,0,0-3.34-4.94C147.86,320.26,143.9,322.4,144.52,326.09Zm-5.33-.7c-0.76,1.64-1,3.58-2.35,4.91-1.32,1.65-3.71,1.18-5.54,1.69a8.22,8.22,0,0,0,.63,7.08c0.77-1.14,1.57-2.27,2.41-3.34,0.71,1,1.41,2,2.11,3a27.65,27.65,0,0,1,2.47-5.37c1.11,1,2.21,2.05,3.34,3a48.33,48.33,0,0,0,.52-8.93C142.69,325.56,140.46,325.91,139.19,325.39Zm-29.54,12.38a38.35,38.35,0,0,0,2.9,10.46c1.35,2.83,4.51,3.86,7.29,4.74a25.4,25.4,0,0,0-.32-3.13c-1.72-1.74-4-2.77-5.55-4.72C111.81,343.14,111,340.28,109.65,337.78Zm17.51,22.09c1.34,1.88,2.62,4,4.74,5.06a35,35,0,0,0,3.88-.29A20.2,20.2,0,0,0,127.16,359.86Z" transform="translate(-11.29 -11.26)"/><path class="cls-1" d="M175.57,122.32a33.79,33.79,0,0,1,14,.66l0.17,1.29c-4.07,2.47-9,.94-13.41.71A1.43,1.43,0,0,1,175.57,122.32Z" transform="translate(-11.29 -11.26)"/><path class="cls-1" d="M173.09,134.38c1,0.15,1.91.32,2.86,0.49,0,0.47,0,1.41,0,1.88l-2.69-.08C173.2,136.11,173.14,135,173.09,134.38Z" transform="translate(-11.29 -11.26)"/><path class="cls-1" d="M237.59,198.31c2.73-1.49,5.73-.37,8.59,0,0.33,0.54,1,1.6,1.31,2.13-2.56,1-5.62,2.36-8.24.77C238.65,200.26,238.1,199.3,237.59,198.31Z" transform="translate(-11.29 -11.26)"/><path class="cls-1" d="M117.62,205.62a9.26,9.26,0,0,1,1.68-5.69,9.19,9.19,0,0,1,1.76,6.93C119.91,206.47,118.76,206.05,117.62,205.62Z" transform="translate(-11.29 -11.26)"/><path class="cls-1" d="M148.92,327.32a16.76,16.76,0,0,1,.88,14.82c-2.93-.2-2.58-3.36-3-5.51C148.37,333.74,148.42,330.5,148.92,327.32Z" transform="translate(-11.29 -11.26)"/><path class="cls-1" d="M123.14,335.33l2.44-.25a28.7,28.7,0,0,1-.39,7.15A9.55,9.55,0,0,1,123.14,335.33Z" transform="translate(-11.29 -11.26)"/><path class="cls-2" d="M354,104.17c2,5.63,6.34,8.64,12.1,8.64,7.23,0,11.52-3.9,11.52-10,0-4.1-3.2-7.36-13.37-11.07-8.83-3.2-11.9-6.91-11.9-12.16,0-7.36,6.08-10.94,13.57-10.94a16.31,16.31,0,0,1,14.27,7.55l-2.11,1.66A13.91,13.91,0,0,0,365.76,71c-5.7,0-10.56,2.69-10.56,8.26,0,4.8,2.62,7,10.75,10.11,11.33,4.35,14.53,8.26,14.53,13.63,0,7.81-6.34,12.22-14.46,12.22-6.21,0-11.39-2.94-14.33-9.66Z" transform="translate(-11.29 -11.26)"/><path class="cls-2" d="M400.77,114.28a7.59,7.59,0,0,1-3.65,1c-3.71,0-6.59-2.88-6.59-7.87V84.78h-5.18V82.35h5.18V69.42h2.62V82.35h7.49v2.43h-7.49v22.91c0,3.2,2.11,5.06,4.35,5.06a5.18,5.18,0,0,0,3.26-1.22v2.75Z" transform="translate(-11.29 -11.26)"/><path class="cls-2" d="M427.84,114.41v-4.67a10.82,10.82,0,0,1-9.73,5.5c-7.36,0-10.56-6-10.56-13.44V82.35h2.62V102.5c0,6.46,3,10.37,8.19,10.37,4.42,0,9.47-3.26,9.47-10.88V82.35h2.62v32.06h-2.62Z" transform="translate(-11.29 -11.26)"/><path class="cls-2" d="M460.22,114.41v-5.18a10.86,10.86,0,0,1-10,6c-7,0-11.9-7.62-11.9-16.9S443,81.51,450,81.51c4.48,0,7.87,2.24,10.24,6.53V69.42h2.62v45h-2.62Zm0-20.16c-1.28-6-5.12-10.43-9.86-10.43-5.57,0-9.28,6.53-9.28,14.53s3.84,14.59,9.47,14.59c4.54,0,8.06-3.84,9.66-8.9V94.25Z" transform="translate(-11.29 -11.26)"/><path class="cls-2" d="M494.78,109.22a12.78,12.78,0,0,1-11,6c-7.81,0-13.05-6.85-13.05-16.9s5-16.83,12.8-16.83S496,88.3,496,98.34v0.58H473.47c0.19,8.19,4.42,14,10.3,14a10.65,10.65,0,0,0,9-5.18Zm-1.47-12.61c-0.51-7.62-4.22-12.8-9.79-12.8s-9.47,5.18-10,12.8h19.77Z" transform="translate(-11.29 -11.26)"/><path class="cls-2" d="M524.16,114.41V94.25c0-6.46-3-10.37-8.19-10.37-4.42,0-9.47,3.26-9.47,10.88v19.65h-2.62V82.35h2.62V87a10.82,10.82,0,0,1,9.73-5.5c7.36,0,10.56,6,10.56,13.44v19.45h-2.62Z" transform="translate(-11.29 -11.26)"/><path class="cls-2" d="M547.07,114.28a7.59,7.59,0,0,1-3.65,1c-3.71,0-6.59-2.88-6.59-7.87V84.78h-5.18V82.35h5.18V69.42h2.62V82.35h7.49v2.43h-7.49v22.91c0,3.2,2.11,5.06,4.35,5.06a5.18,5.18,0,0,0,3.26-1.22v2.75Z" transform="translate(-11.29 -11.26)"/><path class="cls-2" d="M578.49,114.41V71.85H564.8V69.42h30.14v2.37H581.18v42.62h-2.69Z" transform="translate(-11.29 -11.26)"/><path class="cls-2" d="M591.61,98.34c0-10,4.8-16.83,13.25-16.83s13.25,6.78,13.25,16.83-4.8,16.9-13.25,16.9S591.61,108.39,591.61,98.34Zm23.74,0c0-8.51-3.78-14.53-10.5-14.53s-10.5,6-10.5,14.53,3.78,14.59,10.5,14.59S615.36,106.86,615.36,98.34Z" transform="translate(-11.29 -11.26)"/><path class="cls-2" d="M645.95,114.41v-4.67a10.82,10.82,0,0,1-9.73,5.5c-7.36,0-10.56-6-10.56-13.44V82.35h2.62V102.5c0,6.46,3,10.37,8.19,10.37,4.42,0,9.47-3.26,9.47-10.88V82.35h2.62v32.06h-2.62Z" transform="translate(-11.29 -11.26)"/><path class="cls-2" d="M658.24,114.41V82.35h2.62V87a10.63,10.63,0,0,1,9.6-5.5,12.93,12.93,0,0,1,4,.7l-1,2.5a8.27,8.27,0,0,0-3.33-.7c-4.42,0-9.28,3.33-9.28,10.94v19.45h-2.62Z" transform="translate(-11.29 -11.26)"/><path class="cls-2" d="M680.13,107.56c2.24,3.65,5,5.38,8.7,5.38,5,0,7.55-2.88,7.55-6.4,0-3.33-2.11-5.44-9.73-8.13-5.89-2-8.26-5-8.26-8.9,0-4.42,3.52-8,9.92-8a12.39,12.39,0,0,1,10.24,5.25l-2,1.6a10,10,0,0,0-8.26-4.54c-4.1,0-7.1,2-7.1,5.7,0,3.33,2.43,5.06,7.49,6.85,7.94,2.88,10.5,5.76,10.5,10.11,0,5.06-3.71,8.77-10.37,8.77a11.36,11.36,0,0,1-10.69-6.14Z" transform="translate(-11.29 -11.26)"/><path class="cls-2" d="M721.47,98.34c0-10,4.8-16.83,13.25-16.83S748,88.3,748,98.34s-4.8,16.9-13.25,16.9S721.47,108.39,721.47,98.34Zm23.74,0c0-8.51-3.78-14.53-10.5-14.53s-10.5,6-10.5,14.53,3.78,14.59,10.5,14.59S745.21,106.86,745.21,98.34Z" transform="translate(-11.29 -11.26)"/><path class="cls-2" d="M757.18,114.41V84.78H752V82.35h5.18V76.71c0-5,2.88-8.06,6.59-8.06a8,8,0,0,1,3.65,1v2.82a5.53,5.53,0,0,0-3.33-1.34c-2.24,0-4.29,2-4.29,5.18v6.08h7.49v2.43H759.8v29.63h-2.62Z" transform="translate(-11.29 -11.26)"/><path class="cls-2" d="M789.95,114.41v-45H804c11.2,0,18,10,18,22.46s-6.85,22.53-18,22.53H789.95ZM804,112c9.34,0,15.23-9,15.23-20.09s-5.89-20-15.23-20H792.63V112H804Z" transform="translate(-11.29 -11.26)"/><path class="cls-2" d="M829.63,70.89a2.27,2.27,0,1,1,2.3,2.3A2.28,2.28,0,0,1,829.63,70.89Zm1,43.52V82.35h2.62v32.06h-2.62Z" transform="translate(-11.29 -11.26)"/><path class="cls-2" d="M843.77,107.56c2.24,3.65,5,5.38,8.7,5.38,5,0,7.55-2.88,7.55-6.4,0-3.33-2.11-5.44-9.73-8.13-5.89-2-8.25-5-8.25-8.9,0-4.42,3.52-8,9.92-8a12.39,12.39,0,0,1,10.24,5.25l-2,1.6a10,10,0,0,0-8.26-4.54c-4.1,0-7.1,2-7.1,5.7,0,3.33,2.43,5.06,7.49,6.85,7.93,2.88,10.5,5.76,10.5,10.11,0,5.06-3.71,8.77-10.37,8.77a11.36,11.36,0,0,1-10.69-6.14Z" transform="translate(-11.29 -11.26)"/><path class="cls-2" d="M882.42,114.28a7.58,7.58,0,0,1-3.65,1c-3.71,0-6.59-2.88-6.59-7.87V84.78H867V82.35h5.18V69.42h2.62V82.35h7.49v2.43h-7.49v22.91c0,3.2,2.11,5.06,4.35,5.06a5.18,5.18,0,0,0,3.26-1.22v2.75Z" transform="translate(-11.29 -11.26)"/><path class="cls-2" d="M889.66,70.89a2.27,2.27,0,1,1,2.3,2.3A2.28,2.28,0,0,1,889.66,70.89Zm1,43.52V82.35h2.62v32.06h-2.62Z" transform="translate(-11.29 -11.26)"/><path class="cls-2" d="M923.64,114.41V94.25c0-6.46-3-10.37-8.19-10.37-4.42,0-9.47,3.26-9.47,10.88v19.65h-2.62V82.35H906V87a10.82,10.82,0,0,1,9.73-5.5c7.36,0,10.56,6,10.56,13.44v19.45h-2.62Z" transform="translate(-11.29 -11.26)"/><path class="cls-2" d="M957.62,109.22a12,12,0,0,1-10.56,6c-8.13,0-13.25-6.78-13.25-16.83s5.12-16.89,13.25-16.89a12.11,12.11,0,0,1,10.69,6L955.58,89c-2.11-3.2-4.93-5.12-8.51-5.12-6.33,0-10.5,6-10.5,14.53s4.16,14.46,10.5,14.46c3.58,0,6.34-2,8.38-5.12Z" transform="translate(-11.29 -11.26)"/><path class="cls-2" d="M978,114.28a7.58,7.58,0,0,1-3.65,1c-3.71,0-6.59-2.88-6.59-7.87V84.78h-5.18V82.35h5.18V69.42h2.62V82.35h7.49v2.43h-7.49v22.91c0,3.2,2.11,5.06,4.35,5.06a5.18,5.18,0,0,0,3.26-1.22v2.75Z" transform="translate(-11.29 -11.26)"/><path class="cls-2" d="M985.27,70.89a2.27,2.27,0,1,1,2.3,2.3A2.28,2.28,0,0,1,985.27,70.89Zm1,43.52V82.35h2.62v32.06h-2.62Z" transform="translate(-11.29 -11.26)"/><path class="cls-2" d="M997.18,98.34c0-10,4.8-16.83,13.25-16.83s13.25,6.78,13.25,16.83-4.8,16.9-13.25,16.9S997.18,108.39,997.18,98.34Zm23.74,0c0-8.51-3.78-14.53-10.5-14.53s-10.5,6-10.5,14.53,3.78,14.59,10.5,14.59S1020.92,106.86,1020.92,98.34Z" transform="translate(-11.29 -11.26)"/><path class="cls-2" d="M1051.83,114.41V94.25c0-6.46-3-10.37-8.19-10.37-4.42,0-9.47,3.26-9.47,10.88v19.65h-2.62V82.35h2.62V87a10.82,10.82,0,0,1,9.73-5.5c7.36,0,10.56,6,10.56,13.44v19.45h-2.62Z" transform="translate(-11.29 -11.26)"/></svg>